<?xml version="1.0" standalone="no"?>
<!DOCTYPE svg PUBLIC "-//W3C//DTD SVG 20010904//EN"
 "http://www.w3.org/TR/2001/REC-SVG-20010904/DTD/svg10.dtd">
<svg version="1.0" xmlns="http://www.w3.org/2000/svg"
 width="198.000000pt" height="101.000000pt" viewBox="0 0 198.000000 101.000000"
 preserveAspectRatio="xMidYMid meet">

<g transform="translate(0.000000,101.000000) scale(0.100000,-0.100000)"
fill="#000000" stroke="none">
<path d="M1147 838 c-38 -61 -77 -139 -77 -152 0 -13 20 -26 41 -26 4 0 19 18
31 40 l23 40 60 -7 c104 -12 110 -11 110 17 0 21 -6 25 -45 33 -92 16 -91 16
-80 37 8 15 6 21 -9 30 -29 15 -39 13 -54 -12z"/>
<path d="M1428 793 c-38 -86 -42 -127 -11 -131 18 -3 26 5 39 38 l17 42 61 -8
c34 -5 77 -8 96 -9 31 0 35 3 35 25 0 22 -6 25 -50 32 -117 18 -113 17 -108
39 6 21 -10 39 -35 39 -7 0 -27 -30 -44 -67z"/>
<path d="M695 793 c-24 -37 -28 -38 -83 -38 -55 0 -57 -1 -60 -27 -3 -24 0
-28 22 -28 56 0 56 -7 8 -87 -45 -72 -46 -76 -27 -89 11 -8 24 -13 30 -11 5 2
33 40 60 85 l50 81 88 1 c85 0 87 0 87 24 0 22 -5 25 -57 32 -74 8 -77 11 -57
42 16 24 16 26 -2 39 -26 19 -31 17 -59 -24z"/>
<path d="M150 701 c0 -27 3 -31 29 -31 15 0 48 -3 73 -6 l45 -6 -15 -59 c-16
-57 -15 -60 6 -104 l22 -45 -26 -6 c-29 -7 -44 7 -44 42 0 28 -6 32 -35 26
-21 -4 -25 -10 -25 -40 0 -19 5 -64 11 -99 11 -60 12 -63 40 -63 26 0 29 3 29
35 0 30 4 35 28 41 102 22 107 30 70 115 -20 49 -21 52 -5 103 10 29 17 64 17
78 0 29 -13 34 -140 44 l-80 7 0 -32z"/>
<path d="M1187 681 c-4 -17 0 -24 19 -32 37 -14 61 -11 68 8 9 22 -4 33 -46
39 -30 5 -36 3 -41 -15z"/>
<path d="M1517 693 c-19 -18 -5 -43 31 -52 31 -9 39 -8 50 6 18 25 15 32 -15
39 -16 3 -35 8 -44 10 -8 2 -18 1 -22 -3z"/>
<path d="M415 670 c-9 -28 9 -47 53 -60 29 -7 40 -7 51 4 27 27 0 53 -73 72
-19 4 -26 1 -31 -16z"/>
<path d="M700 591 c0 -29 2 -31 50 -37 42 -5 50 -10 51 -28 1 -11 4 -65 8
-119 6 -96 5 -98 -16 -104 -26 -6 -31 -31 -8 -39 8 -4 31 -3 50 0 l35 7 0 165
c0 123 -3 166 -12 169 -7 2 -46 6 -85 10 l-73 6 0 -30z"/>
<path d="M1375 594 c-214 -23 -230 -27 -230 -49 0 -26 47 -30 180 -15 161 19
197 28 193 53 -2 11 -7 21 -13 23 -5 1 -64 -4 -130 -12z"/>
<path d="M630 414 l0 -135 28 3 c23 3 27 8 30 41 3 36 4 37 43 37 35 0 39 3
39 25 0 23 -4 25 -40 25 -29 0 -40 4 -40 15 0 11 11 15 41 15 38 0 40 1 37 28
-3 23 -8 27 -40 30 -33 3 -38 7 -38 28 0 20 -5 24 -30 24 l-30 0 0 -136z"/>
<path d="M385 520 c-8 -27 7 -40 48 -40 15 0 27 -2 27 -3 0 -2 -9 -30 -20 -61
l-19 -57 27 -10 c15 -5 32 -11 39 -14 9 -3 9 -13 2 -37 -5 -18 -9 -45 -9 -59
0 -24 5 -27 46 -33 26 -3 64 -6 85 -6 35 0 39 3 39 25 0 22 -5 25 -32 25 -54
0 -80 11 -73 28 3 9 9 35 12 58 5 40 4 42 -26 49 -17 4 -31 8 -31 10 0 1 7 22
15 45 28 79 25 83 -72 95 -47 6 -52 5 -58 -15z"/>
<path d="M1317 493 c-4 -3 -7 -15 -7 -25 0 -16 -9 -18 -71 -18 l-70 0 3 -27
c3 -28 4 -28 64 -25 59 4 62 3 68 -23 4 -14 4 -30 1 -35 -4 -6 -51 -10 -106
-10 l-100 0 3 -27 3 -28 103 2 102 2 0 -48 c0 -35 4 -51 16 -55 20 -8 218 -8
238 0 9 3 16 17 16 30 0 24 -1 24 -100 24 -99 0 -100 0 -100 24 0 21 5 24 55
28 63 5 69 9 60 37 -5 18 -14 21 -61 21 -53 0 -54 0 -54 30 0 29 1 30 48 30
26 0 71 3 100 6 46 6 52 9 52 30 0 24 -2 24 -99 24 -90 0 -99 2 -104 20 -5 20
-45 28 -60 13z"/>
</g>
</svg>
